<svg width="480" height="248" viewBox="0 0 480 248" xmlns="http://www.w3.org/2000/svg"><path fill="white" d="M141.943 49.657c-1.866 4.394-4.354 8.021-7.463 10.882-3.11 2.86-6.633 4.981-10.572 6.36-3.939 1.38-7.93 2.07-11.971 2.07h-10.728v39.541H76.8V0h34.204c3.938 0 7.903.562 11.893 1.686A30.57 30.57 0 01133.78 7.28c3.265 2.605 5.908 6.105 7.93 10.499 2.02 4.393 3.031 9.808 3.031 16.245 0 6.029-.933 11.24-2.798 15.633zM117.845 23.91c-2.384-2.146-5.286-3.218-8.707-3.218h-7.929v28.353h7.93c3.42 0 6.322-1.251 8.706-3.755 2.383-2.503 3.575-6.105 3.575-10.805 0-4.904-1.192-8.43-3.575-10.575zm40.111 84.601V0h25.031v108.51h-25.03zm91.573 0l-15.236-35.863-15.08 35.863h-25.965L220.3 51.65 195.425 0h25.964l13.526 32.952L248.596 0h25.498l-25.031 51.496 27.363 57.014h-26.897zm37.002 0V0h25.031v108.51h-25.03zm92.817 0h-31.56L321.201 0h28.14l14.925 79.39h.311L379.348 0H406.4l-27.052 108.51zm-354.31 49.855v22.177H51.32v21.1H25.194v43.432H0V136.033h53.653v22.332H25.038zm85.378 86.709l-4.51-19.868H81.18l-4.51 19.868H51.787l26.749-109.041h31.258l26.593 109.04h-25.97zM93.932 159.75h-.622l-9.331 46.358h18.817l-8.864-46.358zm98.605 85.323l-25.504-66.38h-.467l.622 66.38H144.95V136.033h27.37l25.35 67.303h.466l-.467-67.303h21.462v109.04h-26.594zm109.276-16.403c-1.918 3.953-4.432 7.136-7.542 9.55-3.11 2.412-6.61 4.158-10.498 5.236a43.755 43.755 0 01-11.741 1.617h-36.546V136.033h32.97c3.42 0 7.05.36 10.885 1.078 3.836.719 7.335 2.08 10.498 4.081 3.162 2.002 5.805 4.852 7.93 8.548 2.126 3.696 3.189 8.47 3.189 14.323 0 6.469-1.322 11.628-3.966 15.478-2.644 3.85-5.883 6.649-9.72 8.394 2.074.821 4.148 1.746 6.221 3.08 2.074 1.335 3.94 3.055 5.599 5.16 1.659 2.105 3.006 4.646 4.043 7.623 1.037 2.978 1.555 6.366 1.555 10.165 0 5.853-.959 10.755-2.877 14.708zm-26.36-69.536c-2.384-1.746-5.184-2.618-8.398-2.618h-8.397v23.563h8.553c3.007 0 5.728-.924 8.165-2.772 2.436-1.848 3.654-4.928 3.654-9.24 0-4.21-1.192-7.188-3.577-8.933zm4.433 46.28c-.778-1.694-1.815-3.08-3.11-4.158a12.87 12.87 0 00-4.355-2.387c-1.607-.513-3.188-.77-4.743-.77h-9.02v26.49h9.33c3.63 0 6.714-1.078 9.254-3.234 2.54-2.156 3.81-5.39 3.81-9.703 0-2.464-.389-4.543-1.166-6.237zm114.096 8.471c-1.97 7.136-4.769 13.22-8.397 18.25-3.63 5.032-8.061 8.933-13.297 11.706-5.236 2.772-11.12 4.158-17.651 4.158-6.532 0-12.415-1.386-17.651-4.158-5.236-2.773-9.668-6.674-13.297-11.705-3.629-5.031-6.428-11.115-8.398-18.25-1.97-7.137-2.954-15.017-2.954-23.642 0-8.624.959-16.453 2.877-23.487 1.918-7.033 4.69-13.04 8.32-18.02 3.628-4.979 8.06-8.83 13.296-11.55 5.236-2.721 11.171-4.081 17.807-4.081 6.532 0 12.415 1.36 17.65 4.08 5.237 2.722 9.669 6.572 13.298 11.552 3.628 4.98 6.428 10.986 8.397 18.02 1.97 7.033 2.955 14.862 2.955 23.486 0 8.625-.985 16.505-2.955 23.641zm-23.638-36.809c-.726-4.055-1.788-7.572-3.188-10.55-1.4-2.977-3.136-5.313-5.21-7.007-2.073-1.694-4.51-2.541-7.31-2.541-2.798 0-5.26.847-7.386 2.54-2.126 1.695-3.888 4.03-5.288 7.008-1.4 2.978-2.436 6.495-3.11 10.55-.674 4.056-1.01 8.445-1.01 13.168 0 4.723.336 9.138 1.01 13.245.674 4.107 1.71 7.65 3.11 10.627 1.4 2.978 3.162 5.34 5.288 7.085 2.125 1.745 4.588 2.618 7.387 2.618 2.8 0 5.236-.873 7.31-2.618 2.073-1.746 3.81-4.107 5.209-7.085 1.4-2.977 2.462-6.52 3.188-10.627.726-4.107 1.089-8.522 1.089-13.245 0-4.723-.363-9.112-1.089-13.168zm82.752 67.997l-15.24-36.04-15.086 36.04H396.8l27.06-57.139-24.883-51.902h25.971l13.53 33.113 13.686-33.113h25.504L452.63 187.78 480 245.074h-26.904z" fill-rule="evenodd"/></svg>